# xmcd
#
# Track frame offsets:
#	150
#	14850
#	28917
#	43337
#	55647
#	69490
#	81682
#	93892
#	105627
#	119079
#	133067
#	145622
#	159617
#	173205
#	185657
#	199342
#
# Disc length: 2843 seconds
#
# Revision: 1
# Processed by: cddbd v1.5PL3 Copyright (c) Steve Scherf et al.
# Submitted via: EasyCDDAExtractor 6.5.0.3
#
DISCID=f40b1910
DTITLE=Alfred Apaka - Hawaiian  Legend Series #5
DYEAR=1998
DGENRE=Ethnic
TTITLE0=Nalani
TTITLE1=Huanani
TTITLE2=Hawaiian Hula Eyes
TTITLE3=Makalapua
TTITLE4=Moon Of The Southern Seas 
TTITLE5=Twilight In Hawaii
TTITLE6=Two Shadows On The Sand
TTITLE7=Na Molokama
TTITLE8=Across The Sea
TTITLE9=Cast Your Cares To The Tradewinds
TTITLE10=Na Moku Eha
TTITLE11=Waipio
TTITLE12=When The Angels Placed A Lie Around Hawaii
TTITLE13=Hawaiian Style
TTITLE14=To You, Sweetheart, Aloha
TTITLE15=Aloha Oe
EXTD=
EXTT0=
EXTT1=
EXTT2=
EXTT3=
EXTT4=
EXTT5=
EXTT6=
EXTT7=
EXTT8=
EXTT9=
EXTT10=
EXTT11=
EXTT12=
EXTT13=
EXTT14=
EXTT15=
PLAYORDER=
